<?xml version="1.0" encoding="utf-8"?>
<!-- Generator: Adobe Illustrator 18.0.0, SVG Export Plug-In . SVG Version: 6.00 Build 0)  -->
<!DOCTYPE svg PUBLIC "-//W3C//DTD SVG 1.1//EN" "http://www.w3.org/Graphics/SVG/1.1/DTD/svg11.dtd">
<svg version="1.1" id="Layer_1" xmlns="http://www.w3.org/2000/svg" xmlns:xlink="http://www.w3.org/1999/xlink" x="0px" y="0px"
	 viewBox="0 0 80 80" enable-background="new 0 0 80 80" xml:space="preserve">
<g>
	<path fill="#424242" d="M71.1,8.9h-4v8.9H52.9V8.9H27.1v8.9H12.9V8.9h-4C4,8.9,0,12.9,0,17.8v53.3C0,76,4,80,8.9,80h62.2
		c4.9,0,8.9-4,8.9-8.9V17.8C80,12.9,76,8.9,71.1,8.9L71.1,8.9z M71.1,71.1H8.9V35.6h62.2V71.1z M23.1,0h-6.2v15.1h6.2V0z M63.1,0
		h-6.2v15.1h6.2V0z M63.1,0"/>
</g>
</svg>
