<?xml version="1.0" encoding="utf-8"?>
<!-- Generator: Adobe Illustrator 18.0.0, SVG Export Plug-In . SVG Version: 6.00 Build 0)  -->
<!DOCTYPE svg PUBLIC "-//W3C//DTD SVG 1.1//EN" "http://www.w3.org/Graphics/SVG/1.1/DTD/svg11.dtd">
<svg version="1.1" id="Layer_1" xmlns="http://www.w3.org/2000/svg" xmlns:xlink="http://www.w3.org/1999/xlink" x="0px" y="0px"
	 viewBox="0 0 158 146" enable-background="new 0 0 158 146" xml:space="preserve">
<g>
	<path fill="#E0E0E0" d="M97.8,0c-32.6,0-59,26.4-59,59c0,32.4,26,58.6,58.3,59v25.1l40.3-40.3c12-10.8,19.5-26.4,19.5-43.8
		C156.8,26.4,130.4,0,97.8,0L97.8,0z M97.8,0"/>
	<path fill="#E0E0E0" d="M48.3,116.1v-7.2l-5.9-0.1c-16.8-0.2-30.5-14-30.5-30.8c0-13.8,9.2-25.6,21.7-29.5
		c0.7-4.5,1.9-8.8,3.5-12.9C16.2,38.4,0,56.3,0,78c0,21.3,15.8,39.2,36.3,42.3v24.6l29.4-29.4c-3.5-2-6.8-4.3-9.9-7L48.3,116.1z
		 M48.3,116.1"/>
</g>
</svg>
