<?xml version="1.0" encoding="utf-8"?>
<!-- Generator: Adobe Illustrator 18.0.0, SVG Export Plug-In . SVG Version: 6.00 Build 0)  -->
<!DOCTYPE svg PUBLIC "-//W3C//DTD SVG 1.1//EN" "http://www.w3.org/Graphics/SVG/1.1/DTD/svg11.dtd">
<svg version="1.1" id="Layer_1" xmlns="http://www.w3.org/2000/svg" xmlns:xlink="http://www.w3.org/1999/xlink" x="0px" y="0px"
	 viewBox="0 0 16 16" enable-background="new 0 0 16 16" xml:space="preserve">
<path fill="#9E9E9E" d="M2.8,4C2.1,4,1.6,3.5,1.6,2.8s0.5-1.2,1.2-1.2S4,2.1,4,2.8S3.5,4,2.8,4 M15.5,7.7L8.3,0.5C8,0.2,7.6,0,7.2,0
	H1.6C0.7,0,0,0.7,0,1.6v5.6C0,7.6,0.2,8,0.5,8.3l7.2,7.2C8,15.8,8.4,16,8.8,16c0.4,0,0.8-0.2,1.1-0.5l5.6-5.6
	C15.8,9.6,16,9.2,16,8.8C16,8.4,15.8,8,15.5,7.7z"/>
</svg>
