<?xml version="1.0" encoding="utf-8"?>
<!-- Generator: Adobe Illustrator 18.0.0, SVG Export Plug-In . SVG Version: 6.00 Build 0)  -->
<!DOCTYPE svg PUBLIC "-//W3C//DTD SVG 1.1//EN" "http://www.w3.org/Graphics/SVG/1.1/DTD/svg11.dtd">
<svg version="1.1" id="Layer_1" xmlns="http://www.w3.org/2000/svg" xmlns:xlink="http://www.w3.org/1999/xlink" x="0px" y="0px"
	 viewBox="0 0 172 65" enable-background="new 0 0 172 65" xml:space="preserve">
<g>
	<g>
		<rect x="28.9" y="0.3" fill="#F5F5F5" width="0.1" height="62.3"/>
		<path fill="#F5F5F5" d="M81.1,25.1V13.5h23.7V0h-38v0.3v13.2H43v11.7h23.7v13.1v0.1H43v11.5h23.7v13.4H105V25.1L81.1,25.1z
			 M90.8,49.8h-24V38.3l24,0v0h0V49.8z"/>
		<polygon fill="#F5F5F5" points="0,0.1 28.8,62.6 29,62.6 29,0.1 		"/>
	</g>
	<g class="logo_text">
		<path fill="#F5F5F5" d="M112.6,1V0h0.9v1H112.6z M112.7,10.8V3h0.7v7.8H112.7z"/>
		<path fill="#F5F5F5" d="M116.4,10.8V3h0.8v1.4c0.1-0.2,0.3-0.4,0.4-0.6c0.1-0.2,0.3-0.3,0.5-0.5c0.2-0.2,0.4-0.3,0.7-0.4
			c0.3-0.1,0.6-0.1,0.9-0.1c0.6,0,1.2,0.2,1.6,0.5c0.4,0.3,0.8,0.7,1,1.2c0.6-1.1,1.6-1.7,2.8-1.7c0.9,0,1.6,0.3,2.2,0.9
			c0.5,0.6,0.8,1.4,0.8,2.4v4.7h-0.7V6.2c0-0.8-0.2-1.5-0.6-1.9c-0.4-0.5-1-0.7-1.7-0.7c-0.7,0-1.3,0.2-1.7,0.7
			c-0.5,0.5-0.7,1.2-0.7,2v4.5h-0.7V6.1c0-0.8-0.2-1.4-0.6-1.9c-0.4-0.5-1-0.7-1.7-0.7s-1.3,0.3-1.8,0.8c-0.5,0.5-0.7,1.2-0.7,2v4.5
			H116.4z"/>
		<path fill="#F5F5F5" d="M130.9,13.2V3h0.8v1.7c0.8-1.3,1.9-1.9,3.2-1.9c0.5,0,0.9,0.1,1.4,0.3c0.4,0.2,0.9,0.5,1.2,0.8
			s0.6,0.8,0.9,1.3c0.2,0.5,0.3,1.1,0.3,1.7c0,0.6-0.1,1.2-0.3,1.7c-0.2,0.5-0.5,0.9-0.9,1.3c-0.4,0.3-0.8,0.6-1.2,0.8
			c-0.4,0.2-0.9,0.3-1.4,0.3c-1.3,0-2.4-0.6-3.2-1.9v4.1H130.9z M131.6,6.9c0,0.6,0.2,1.2,0.5,1.7s0.7,0.9,1.2,1.2
			c0.5,0.3,1,0.4,1.5,0.4c0.9,0,1.6-0.3,2.2-0.9c0.6-0.6,0.9-1.4,0.9-2.4c0-0.5-0.1-1-0.2-1.4c-0.2-0.4-0.4-0.8-0.7-1.1
			c-0.3-0.3-0.6-0.5-1-0.7c-0.4-0.2-0.8-0.2-1.2-0.2c-0.4,0-0.8,0.1-1.2,0.2c-0.4,0.2-0.7,0.4-1,0.7c-0.3,0.3-0.5,0.6-0.7,1.1
			C131.7,6,131.6,6.5,131.6,6.9z"/>
		<path fill="#F5F5F5" d="M140.9,10.8V3h0.8v2.2c0.3-0.7,0.8-1.3,1.4-1.7c0.6-0.4,1.2-0.6,1.9-0.6c0,0,0.1,0,0.1,0v0.8H145
			c-0.5,0-0.9,0.1-1.3,0.3c-0.4,0.2-0.8,0.4-1.1,0.7c-0.3,0.3-0.6,0.7-0.7,1.2c-0.2,0.5-0.3,1.1-0.3,1.7v3.2H140.9z"/>
		<path fill="#F5F5F5" d="M146.1,6.9c0-0.5,0.1-1.1,0.3-1.6c0.2-0.5,0.5-0.9,0.8-1.3c0.3-0.4,0.8-0.7,1.3-0.9c0.5-0.2,1-0.3,1.6-0.3
			c0.7,0,1.4,0.2,2,0.6c0.6,0.4,1.1,0.9,1.4,1.5c0.3,0.6,0.5,1.3,0.5,2c0,0.7-0.2,1.4-0.5,2c-0.3,0.6-0.8,1.1-1.4,1.5
			c-0.6,0.4-1.3,0.6-2.1,0.6c-0.6,0-1.1-0.1-1.6-0.3c-0.5-0.2-0.9-0.5-1.3-0.9c-0.3-0.4-0.6-0.8-0.8-1.3
			C146.2,8,146.1,7.5,146.1,6.9z M146.9,6.9c0,0.9,0.3,1.7,0.9,2.4c0.6,0.7,1.4,1,2.3,1c0.6,0,1.1-0.1,1.6-0.4
			c0.5-0.3,0.9-0.7,1.2-1.2c0.3-0.5,0.4-1.1,0.4-1.7c0-0.9-0.3-1.7-0.9-2.4c-0.6-0.7-1.4-1-2.3-1c-0.6,0-1.1,0.1-1.6,0.4
			c-0.5,0.3-0.9,0.7-1.2,1.2C147,5.8,146.9,6.3,146.9,6.9z"/>
		<path fill="#F5F5F5" d="M155.1,3h0.9l2.9,6.9l3-6.9h0.8l-3.5,7.8h-0.6L155.1,3z"/>
		<path fill="#F5F5F5" d="M163.8,6.9c0-0.6,0.1-1.1,0.3-1.6c0.2-0.5,0.4-0.9,0.8-1.3s0.7-0.6,1.2-0.9c0.5-0.2,0.9-0.3,1.5-0.3
			c0.7,0,1.3,0.2,1.9,0.5c0.5,0.4,1,0.8,1.3,1.5c0.3,0.6,0.4,1.3,0.4,2.1c0,0.1,0,0.2,0,0.3h-6.4c0.1,0.9,0.4,1.7,1,2.2
			c0.6,0.6,1.3,0.8,2.1,0.8c1,0,1.9-0.4,2.7-1.2l0.5,0.5c-0.4,0.5-0.9,0.8-1.4,1.1c-0.5,0.3-1.1,0.4-1.8,0.4c-0.5,0-1-0.1-1.5-0.3
			c-0.5-0.2-0.9-0.5-1.2-0.8c-0.3-0.3-0.6-0.8-0.8-1.3C163.9,8.1,163.8,7.5,163.8,6.9z M164.5,6.6h5.6c0-0.4-0.1-0.8-0.2-1.1
			c-0.1-0.4-0.3-0.7-0.5-1c-0.2-0.3-0.5-0.5-0.9-0.7c-0.3-0.2-0.7-0.2-1.2-0.2c-0.8,0-1.4,0.3-1.9,0.9C164.9,5,164.6,5.7,164.5,6.6z
			"/>
		<path fill="#F5F5F5" d="M111.8,18.3h0.9l3.2,6.9l2.8-6.9h0.8l-3.4,8c-0.3,0.8-0.7,1.4-1.1,1.7c-0.4,0.3-0.9,0.5-1.5,0.5
			c-0.5,0-1-0.1-1.5-0.3l0.3-0.7c0.4,0.2,0.8,0.3,1.3,0.3c0.4,0,0.8-0.1,1.1-0.4c0.3-0.3,0.6-0.7,0.9-1.4L111.8,18.3z"/>
		<path fill="#F5F5F5" d="M120.6,22.1c0-0.5,0.1-1.1,0.3-1.6c0.2-0.5,0.5-0.9,0.8-1.3c0.3-0.4,0.8-0.7,1.3-0.9
			c0.5-0.2,1-0.3,1.6-0.3c0.7,0,1.4,0.2,2,0.6c0.6,0.4,1.1,0.9,1.4,1.5c0.3,0.6,0.5,1.3,0.5,2c0,0.7-0.2,1.4-0.5,2
			c-0.3,0.6-0.8,1.1-1.4,1.5c-0.6,0.4-1.3,0.6-2.1,0.6c-0.6,0-1.1-0.1-1.6-0.3c-0.5-0.2-0.9-0.5-1.3-0.9c-0.3-0.4-0.6-0.8-0.8-1.3
			C120.7,23.2,120.6,22.7,120.6,22.1z M121.4,22.1c0,0.9,0.3,1.7,0.9,2.4s1.4,1,2.3,1c0.6,0,1.1-0.1,1.6-0.4
			c0.5-0.3,0.9-0.7,1.2-1.2c0.3-0.5,0.4-1.1,0.4-1.7c0-0.9-0.3-1.7-0.9-2.4c-0.6-0.7-1.4-1-2.3-1c-0.6,0-1.1,0.1-1.6,0.4
			c-0.5,0.3-0.9,0.7-1.2,1.2C121.5,21,121.4,21.5,121.4,22.1z"/>
		<path fill="#F5F5F5" d="M130.7,23v-4.7h0.7v4.6c0,0.8,0.2,1.4,0.7,1.9c0.4,0.5,1,0.7,1.8,0.7c0.8,0,1.4-0.3,1.9-0.8
			c0.5-0.5,0.8-1.2,0.8-2v-4.5h0.7V26h-0.7v-1.4c-0.6,1.1-1.6,1.6-2.8,1.6c-1,0-1.7-0.3-2.3-0.9C131,24.7,130.7,24,130.7,23z"/>
		<path fill="#F5F5F5" d="M140.2,26v-7.8h0.8v2.2c0.3-0.7,0.8-1.3,1.4-1.7c0.6-0.4,1.2-0.6,1.9-0.6c0,0,0.1,0,0.1,0V19h-0.1
			c-0.5,0-0.9,0.1-1.3,0.3c-0.4,0.2-0.8,0.4-1.1,0.7c-0.3,0.3-0.6,0.7-0.7,1.2c-0.2,0.5-0.3,1.1-0.3,1.7V26H140.2z"/>
		<path fill="#F5F5F5" d="M145.6,25l0.4-0.6c0.9,0.7,1.8,1,2.8,1c0.5,0,1-0.1,1.3-0.4c0.4-0.3,0.5-0.6,0.5-1.1c0-0.2,0-0.3-0.1-0.5
			c-0.1-0.1-0.2-0.3-0.3-0.4c-0.1-0.1-0.3-0.2-0.5-0.3c-0.2-0.1-0.4-0.2-0.5-0.2c-0.2-0.1-0.4-0.1-0.6-0.2c-0.2-0.1-0.3-0.1-0.4-0.1
			c-0.1,0-0.2-0.1-0.4-0.1c-0.2-0.1-0.3-0.1-0.4-0.2c-0.1,0-0.2-0.1-0.4-0.2c-0.2-0.1-0.3-0.1-0.3-0.2c-0.1-0.1-0.2-0.2-0.3-0.3
			c-0.1-0.1-0.2-0.2-0.2-0.3c0-0.1-0.1-0.2-0.1-0.4c0-0.1-0.1-0.3-0.1-0.4c0-0.6,0.2-1.1,0.7-1.5c0.5-0.4,1.1-0.6,1.8-0.6
			c0.5,0,0.9,0.1,1.4,0.2c0.5,0.2,0.9,0.4,1.3,0.6l-0.4,0.6c-0.8-0.5-1.6-0.8-2.4-0.8c-0.5,0-1,0.1-1.3,0.4c-0.3,0.3-0.5,0.6-0.5,1
			c0,0.1,0,0.3,0.1,0.4c0,0.1,0.1,0.2,0.2,0.3c0.1,0.1,0.2,0.2,0.3,0.2c0.1,0.1,0.3,0.1,0.5,0.2c0.2,0.1,0.4,0.1,0.5,0.2
			c0.1,0,0.3,0.1,0.5,0.2c0.3,0.1,0.5,0.1,0.6,0.2c0.2,0.1,0.4,0.1,0.6,0.2c0.2,0.1,0.4,0.2,0.5,0.3c0.1,0.1,0.3,0.2,0.4,0.4
			s0.2,0.3,0.3,0.5c0.1,0.2,0.1,0.4,0.1,0.6c0,0.7-0.3,1.2-0.8,1.6c-0.5,0.4-1.2,0.6-1.9,0.6c-0.6,0-1.1-0.1-1.7-0.3
			C146.5,25.7,146,25.4,145.6,25z"/>
		<path fill="#F5F5F5" d="M153.3,22.1c0-0.6,0.1-1.1,0.3-1.6c0.2-0.5,0.4-0.9,0.8-1.3c0.3-0.4,0.7-0.6,1.2-0.9
			c0.5-0.2,0.9-0.3,1.5-0.3c0.7,0,1.3,0.2,1.9,0.5c0.5,0.4,1,0.8,1.3,1.5c0.3,0.6,0.4,1.3,0.4,2.1c0,0.1,0,0.2,0,0.3h-6.4
			c0.1,0.9,0.4,1.7,1,2.2c0.6,0.6,1.3,0.8,2.1,0.8c1,0,1.9-0.4,2.7-1.2l0.5,0.5c-0.4,0.5-0.9,0.8-1.4,1.1c-0.5,0.3-1.1,0.4-1.8,0.4
			c-0.5,0-1-0.1-1.5-0.3c-0.5-0.2-0.9-0.5-1.2-0.8s-0.6-0.8-0.8-1.3C153.4,23.3,153.3,22.7,153.3,22.1z M154.1,21.8h5.6
			c0-0.4-0.1-0.8-0.2-1.1c-0.1-0.4-0.3-0.7-0.5-1c-0.2-0.3-0.5-0.5-0.9-0.7c-0.3-0.2-0.7-0.2-1.2-0.2c-0.8,0-1.4,0.3-1.9,0.9
			C154.4,20.2,154.1,20.9,154.1,21.8z"/>
		<path fill="#F5F5F5" d="M162.8,26V14.9h0.7V26H162.8z"/>
		<path fill="#F5F5F5" d="M165.8,18.9v-0.7h1.1v-0.8c0-0.9,0.2-1.6,0.7-2c0.4-0.4,0.9-0.6,1.6-0.6c0.4,0,0.8,0.1,1.2,0.2v0.7
			c-0.4-0.1-0.8-0.2-1.2-0.2c-0.5,0-0.9,0.2-1.2,0.5c-0.3,0.3-0.4,0.8-0.4,1.5v0.8h2.7v0.7h-2.7V26h-0.7v-7.1H165.8z"/>
		<path fill="#F5F5F5" d="M120.2,44.1c-0.8,0.4-1.8,0.6-3.1,0.6c-1.7,0-3-0.5-3.9-1.5c-0.9-1-1.4-2.3-1.4-3.9c0-1.7,0.5-3.1,1.6-4.2
			c1.1-1.1,2.5-1.6,4.2-1.6c1.1,0,1.9,0.1,2.7,0.4v2.3c-0.7-0.4-1.5-0.6-2.5-0.6c-1,0-1.8,0.3-2.5,1c-0.6,0.6-0.9,1.5-0.9,2.6
			c0,1,0.3,1.9,0.9,2.5c0.6,0.6,1.4,0.9,2.4,0.9c0.9,0,1.8-0.2,2.6-0.7V44.1z"/>
		<path fill="#F5F5F5" d="M126.4,44.7c-1.5,0-2.8-0.5-3.8-1.5c-1-1-1.5-2.3-1.5-3.9c0-1.7,0.5-3.1,1.5-4.1c1-1.1,2.3-1.6,3.9-1.6
			c1.5,0,2.8,0.5,3.7,1.5c1,1,1.4,2.3,1.4,4c0,1.7-0.5,3.1-1.5,4.1C129.3,44.2,128,44.7,126.4,44.7z M126.5,35.6c-0.9,0-1.5,0.3-2,1
			c-0.5,0.6-0.8,1.5-0.8,2.5c0,1.1,0.3,1.9,0.8,2.5c0.5,0.6,1.2,0.9,2,0.9c0.8,0,1.5-0.3,2-0.9c0.5-0.6,0.7-1.4,0.7-2.5
			c0-1.1-0.2-2-0.7-2.6C128,35.9,127.4,35.6,126.5,35.6z"/>
		<path fill="#F5F5F5" d="M143.3,44.5h-2.5l-4.4-6.8c-0.3-0.4-0.4-0.7-0.5-0.9h0c0,0.4,0.1,1,0.1,1.7v5.9h-2.3V33.7h2.6l4.3,6.6
			c0.2,0.3,0.4,0.6,0.5,0.9h0c0-0.3-0.1-0.7-0.1-1.5v-6h2.3V44.5z"/>
		<path fill="#F5F5F5" d="M153.3,35.7h-3.1v8.8h-2.4v-8.8h-3.1v-2h8.6V35.7z"/>
		<path fill="#F5F5F5" d="M157.2,44.5h-2.4V33.7h2.4V44.5z"/>
		<path fill="#F5F5F5" d="M169.4,44.5h-2.5l-4.4-6.8c-0.3-0.4-0.4-0.7-0.5-0.9h0c0,0.4,0.1,1,0.1,1.7v5.9h-2.3V33.7h2.6l4.3,6.6
			c0.2,0.3,0.4,0.6,0.5,0.9h0c0-0.3-0.1-0.7-0.1-1.5v-6h2.3V44.5z"/>
		<path fill="#F5F5F5" d="M121.2,58.3c0,3.2-1.5,4.9-4.5,4.9c-2.9,0-4.4-1.6-4.4-4.8v-6.2h2.4v6.3c0,1.7,0.7,2.6,2,2.6
			c1.3,0,2-0.8,2-2.5v-6.4h2.4V58.3z"/>
		<path fill="#F5F5F5" d="M128.2,63.2c-1.5,0-2.8-0.5-3.8-1.5c-1-1-1.5-2.3-1.5-3.9c0-1.7,0.5-3.1,1.5-4.1c1-1.1,2.3-1.6,3.9-1.6
			c1.5,0,2.8,0.5,3.7,1.5c1,1,1.4,2.3,1.4,4c0,1.7-0.5,3.1-1.5,4.1C131,62.7,129.7,63.2,128.2,63.2z M128.3,54.1c-0.9,0-1.5,0.3-2,1
			c-0.5,0.6-0.8,1.5-0.8,2.5c0,1.1,0.3,1.9,0.8,2.5c0.5,0.6,1.2,0.9,2,0.9c0.8,0,1.5-0.3,2-0.9c0.5-0.6,0.7-1.4,0.7-2.5
			c0-1.1-0.2-2-0.7-2.6C129.7,54.5,129.1,54.1,128.3,54.1z"/>
		<path fill="#F5F5F5" d="M144.1,58.3c0,3.2-1.5,4.9-4.5,4.9c-2.9,0-4.4-1.6-4.4-4.8v-6.2h2.4v6.3c0,1.7,0.7,2.6,2,2.6
			c1.3,0,2-0.8,2-2.5v-6.4h2.4V58.3z"/>
		<path fill="#F5F5F5" d="M145.9,62.6v-2.4c0.4,0.4,0.9,0.6,1.4,0.8c0.5,0.2,1,0.3,1.6,0.3c0.3,0,0.6,0,0.8-0.1
			c0.2-0.1,0.4-0.1,0.6-0.2c0.2-0.1,0.3-0.2,0.3-0.3c0.1-0.1,0.1-0.3,0.1-0.4c0-0.2-0.1-0.4-0.2-0.6c-0.1-0.2-0.3-0.3-0.5-0.5
			c-0.2-0.1-0.5-0.3-0.7-0.4c-0.3-0.1-0.6-0.3-0.9-0.4c-0.8-0.4-1.5-0.8-1.9-1.3c-0.4-0.5-0.6-1.1-0.6-1.8c0-0.6,0.1-1,0.3-1.4
			c0.2-0.4,0.5-0.7,0.9-1c0.4-0.3,0.8-0.5,1.4-0.6c0.5-0.1,1.1-0.2,1.6-0.2c0.6,0,1.1,0,1.5,0.1c0.4,0.1,0.8,0.2,1.2,0.3v2.3
			c-0.2-0.1-0.4-0.2-0.6-0.3c-0.2-0.1-0.4-0.2-0.7-0.2c-0.2-0.1-0.5-0.1-0.7-0.1c-0.2,0-0.4,0-0.6,0c-0.3,0-0.5,0-0.8,0.1
			c-0.2,0.1-0.4,0.1-0.6,0.2c-0.2,0.1-0.3,0.2-0.4,0.3c-0.1,0.1-0.1,0.3-0.1,0.4c0,0.2,0,0.3,0.1,0.5c0.1,0.1,0.2,0.3,0.4,0.4
			c0.2,0.1,0.4,0.3,0.6,0.4c0.3,0.1,0.5,0.2,0.9,0.4c0.4,0.2,0.8,0.4,1.2,0.6c0.3,0.2,0.6,0.4,0.9,0.7c0.2,0.3,0.4,0.5,0.6,0.9
			c0.1,0.3,0.2,0.7,0.2,1.1c0,0.6-0.1,1.1-0.3,1.5c-0.2,0.4-0.5,0.7-0.9,1c-0.4,0.3-0.8,0.4-1.4,0.5c-0.5,0.1-1.1,0.2-1.6,0.2
			c-0.6,0-1.2-0.1-1.7-0.2C146.8,63,146.3,62.8,145.9,62.6z"/>
		<path fill="#F5F5F5" d="M161.5,63h-6.4V52.2h2.4v8.8h4V63z"/>
		<path fill="#F5F5F5" d="M170.1,52.2l-3.5,7V63h-2.4v-3.8l-3.4-7h2.8l1.7,4c0,0.1,0.1,0.4,0.2,0.9h0c0.1-0.4,0.1-0.6,0.2-0.9
			l1.8-4.1H170.1z"/>
	</g>
</g>
</svg>
