<?xml version="1.0" encoding="utf-8"?>
<!-- Generator: Adobe Illustrator 18.0.0, SVG Export Plug-In . SVG Version: 6.00 Build 0)  -->
<!DOCTYPE svg PUBLIC "-//W3C//DTD SVG 1.1//EN" "http://www.w3.org/Graphics/SVG/1.1/DTD/svg11.dtd">
<svg version="1.1" id="Layer_1" xmlns="http://www.w3.org/2000/svg" xmlns:xlink="http://www.w3.org/1999/xlink" x="0px" y="0px"
	 viewBox="0 0 96 60" enable-background="new 0 0 96 60" xml:space="preserve">
<path fill="#424242" d="M65.1,34.3c-1.2,0-2.7,0-4.2,0.2c5,3.6,8.4,8.4,8.4,14.8V60h25.7V49.3C95.1,39.3,75.1,34.3,65.1,34.3
	 M30.9,34.3c-10,0-30,5-30,15V60h60V49.3C60.9,39.3,40.8,34.3,30.9,34.3 M30.9,25.7c7.1,0,12.9-5.8,12.9-12.9S38,0,30.9,0
	S18,5.8,18,12.9S23.8,25.7,30.9,25.7 M65.1,25.7C72.2,25.7,78,20,78,12.9S72.2,0,65.1,0C58,0,52.3,5.8,52.3,12.9S58,25.7,65.1,25.7z
	"/>
</svg>
